<svg width="20" height="20" viewBox="0 0 20 20" fill="none" xmlns="http://www.w3.org/2000/svg">
<path fill-rule="evenodd" clip-rule="evenodd" d="M9.94698 0.000930233H10.053C12.2009 0.000930233 13.8837 0.000930288 15.1972 0.177666C16.5405 0.358123 17.6009 0.73578 18.4335 1.56737C19.266 2.39989 19.6428 3.4603 19.8233 4.80443C20 6.11692 20 7.79964 20 9.94744V10.0293C20 11.805 20 13.258 19.9033 14.4412C19.8065 15.6318 19.6084 16.6243 19.1637 17.4504C18.969 17.8137 18.7256 18.1415 18.4335 18.4336C17.6009 19.2661 16.5405 19.6428 15.1963 19.8233C13.8837 20 12.2009 20 10.053 20H9.94698C7.79907 20 6.11628 20 4.80279 19.8233C3.45954 19.6428 2.39907 19.2652 1.56651 18.4336C0.828837 17.6959 0.447442 16.7778 0.245581 15.6374C0.0455814 14.5184 0.0093023 13.1259 0.00186044 11.3976C0.000620131 10.9573 0 10.4916 0 10.0005V9.94652C0 7.79871 5.54462e-08 6.11599 0.176744 4.80257C0.357209 3.45937 0.734884 2.39896 1.56651 1.56644C2.39907 0.73392 3.45953 0.357193 4.80372 0.176736C6.11628 5.54436e-08 7.79907 0 9.94698 0M4.98884 1.559C3.8 1.71899 3.08279 2.02409 2.55349 2.55337C2.02326 3.08358 1.71907 3.79982 1.55907 4.98954C1.39721 6.19878 1.39535 7.78754 1.39535 9.99954V10.7846L2.32651 9.96977C2.73495 9.61225 3.26402 9.42334 3.80654 9.4413C4.34906 9.45926 4.86448 9.68276 5.24837 10.0665L9.23907 14.057C9.54875 14.3666 9.95772 14.5571 10.394 14.5948C10.8303 14.6326 11.2659 14.5153 11.6242 14.2635L11.9014 14.0682C12.4183 13.705 13.0432 13.5279 13.6738 13.5659C14.3044 13.6039 14.9035 13.8548 15.373 14.2775L18.0056 16.6467C18.2716 16.0904 18.4288 15.3593 18.5126 14.3277C18.6037 13.2068 18.6047 11.8097 18.6047 9.99954C18.6047 7.78754 18.6028 6.19878 18.4409 4.98954C18.2809 3.79982 17.9758 3.08265 17.4465 2.55244C16.9163 2.02316 16.2 1.71899 15.0102 1.559C13.8009 1.39714 12.2121 1.39528 10 1.39528C7.78791 1.39528 6.19814 1.39714 4.98884 1.559Z" fill="#007573"/>
</svg>
